<?xml version="1.0" encoding="UTF-8"?>
<!--
  The desktop app's icon: the mark from apps/ui/public/mark.svg, set on the bone ground with the
  margin an application icon keeps. `task build:desktop-icons` renders every PNG the app needs
  from this file; they are generated, never drawn by hand.
-->
<svg xmlns="http://www.w3.org/2000/svg" viewBox="0 0 1024 1024" width="1024" height="1024">
  <title>Undercroft</title>
  <rect x="64" y="64" width="896" height="896" rx="200" fill="#efe9d9" />
  <g transform="translate(192 192) scale(20)" fill="#16150f" fill-rule="evenodd">
    <path
      d="M3 0h26a3 3 0 0 1 3 3v26a3 3 0 0 1-3 3H3a3 3 0 0 1-3-3V3a3 3 0 0 1 3-3ZM5 27.5V15.5a11 11 0 0 1 22 0V27.5ZM9 27.5V15.5a7 7 0 0 1 14 0V27.5ZM12.5 27.5V15.5a3.5 3.5 0 0 1 7 0V27.5ZM5 15.5h4v1.5H5ZM23 15.5h4v1.5h-4Z"
    />
  </g>
</svg>
